<svg width="40" height="47" viewBox="0 0 40 47" fill="none" xmlns="http://www.w3.org/2000/svg">
<path d="M2.93886 42.6516V3.14878H21.4665H21.5788V7.93076C21.5788 9.11885 22.4809 10.0855 23.5897 10.0855H28.0185V22.7522C28.3449 22.6829 28.6807 22.6449 29.0242 22.6449C29.7037 22.6449 30.3549 22.7871 30.9574 23.0462V9.16093C30.9574 8.97115 30.8871 8.78909 30.7618 8.65484L22.8797 0.209537C22.7542 0.0754275 22.5845 0 22.4073 0H2.01085C0.902096 0 0 0.966531 0 2.15462V43.6459C0 44.834 0.902096 45.8005 2.01085 45.8005H16.9568C16.789 44.8397 17.1577 43.8209 17.9666 43.2486C18.2793 43.0273 18.5934 42.8308 18.9062 42.6517H2.93886V42.6516Z" fill="black"/>
<path d="M39.5501 44.4428C37.9131 43.2847 36.2029 42.8079 35.0618 42.6115C35.866 41.2254 36.3394 39.5418 36.3394 37.7268C36.3394 36.4215 36.0957 35.1664 35.6482 34.0368C36.7463 33.7881 38.174 33.296 39.5501 32.3222C40.0119 31.9954 40.1389 31.3296 39.8341 30.8348C39.5291 30.3402 38.9075 30.2041 38.4459 30.5307C37.0109 31.546 35.4764 31.9223 34.5583 32.0618C34.0962 31.434 33.5564 30.8812 32.945 30.4311C33.0597 29.9901 33.1179 29.5344 33.1179 29.0701C33.1179 26.5137 31.373 24.4338 29.2283 24.4338C27.0836 24.4338 25.339 26.5136 25.339 29.0701C25.339 29.5344 25.3971 29.9901 25.5118 30.4311C24.9004 30.8812 24.3606 31.434 23.8985 32.0618C22.9804 31.9223 21.4462 31.5462 20.0109 30.5307C19.5493 30.2041 18.9278 30.3402 18.6227 30.8348C18.3179 31.3295 18.4449 31.9954 18.9067 32.3222C20.2828 33.2959 21.7104 33.7879 22.8085 34.0367C22.3608 35.1664 22.1172 36.4213 22.1172 37.7266C22.1172 39.5416 22.5906 41.2252 23.3946 42.6114C22.2537 42.8078 20.5436 43.2845 18.9066 44.4425C18.4449 44.7693 18.3178 45.4351 18.6226 45.9299C18.8152 46.2425 19.1342 46.412 19.4596 46.412C19.6492 46.412 19.8409 46.3544 20.0108 46.2342C22.231 44.6634 24.6911 44.6213 24.7346 44.6209C24.82 44.6206 24.9023 44.6076 24.9814 44.5858C26.1672 45.6517 27.6376 46.2834 29.2281 46.2834C30.8187 46.2834 32.2891 45.6515 33.4749 44.5858C33.5548 44.6077 33.6379 44.6207 33.7241 44.6209C33.7485 44.6209 36.1952 44.6421 38.4457 46.2342C38.6157 46.3544 38.8073 46.412 38.9969 46.412C39.322 46.412 39.6412 46.2425 39.8339 45.9299C40.1389 45.4354 40.0117 44.7694 39.5501 44.4428ZM30.2302 42.3661C30.2302 42.9589 29.7817 43.4395 29.2283 43.4395C28.675 43.4395 28.2264 42.9589 28.2264 42.3661V33.0872C28.2264 32.4944 28.675 32.0138 29.2283 32.0138C29.7817 32.0138 30.2302 32.4944 30.2302 33.0872V42.3661Z" fill="black"/>
<path d="M17.5273 7.10249H7.10776C6.51758 7.10249 6.03909 7.61517 6.03909 8.2475C6.03909 8.87983 6.51758 9.39251 7.10776 9.39251H17.5273C18.1175 9.39251 18.596 8.87983 18.596 8.2475C18.596 7.61517 18.1175 7.10249 17.5273 7.10249Z" fill="black"/>
<path d="M17.5273 14.2588H7.10776C6.51758 14.2588 6.03909 14.7715 6.03909 15.4038C6.03909 16.0363 6.51758 16.5488 7.10776 16.5488H17.5273C18.1175 16.5488 18.596 16.0363 18.596 15.4038C18.596 14.7715 18.1175 14.2588 17.5273 14.2588Z" fill="black"/>
<path d="M17.5273 21.4151H7.10776C6.51758 21.4151 6.03909 21.9278 6.03909 22.5601C6.03909 23.1926 6.51758 23.7051 7.10776 23.7051H17.5273C18.1175 23.7051 18.596 23.1926 18.596 22.5601C18.596 21.9278 18.1175 21.4151 17.5273 21.4151Z" fill="black"/>
</svg>
