<svg width="15" height="15" viewBox="0 0 15 15" fill="none" xmlns="http://www.w3.org/2000/svg">
<path d="M8.93716 7.60731C8.92221 7.59328 8.9103 7.57634 8.90216 7.55754C8.89402 7.53873 8.88982 7.51845 8.88982 7.49796C8.88982 7.47746 8.89402 7.45719 8.90216 7.43838C8.9103 7.41957 8.92221 7.40263 8.93716 7.38861L14.7233 1.59624C14.8109 1.50964 14.8805 1.40651 14.928 1.29281C14.9755 1.17911 15 1.05712 15 0.933898C15 0.810677 14.9755 0.688682 14.928 0.574986C14.8805 0.461289 14.8109 0.358153 14.7233 0.271556C14.5467 0.0975472 14.3088 0 14.0609 0C13.8131 0 13.5751 0.0975472 13.3986 0.271556L7.61247 6.05768C7.5979 6.07279 7.58043 6.08482 7.56111 6.09303C7.54178 6.10125 7.521 6.10548 7.5 6.10548C7.479 6.10548 7.45822 6.10125 7.43889 6.09303C7.41957 6.08482 7.4021 6.07279 7.38753 6.05768L1.60141 0.271556C1.42487 0.0975472 1.18694 0 0.939064 0C0.691184 0 0.45326 0.0975472 0.276722 0.271556C0.189062 0.358153 0.119463 0.461289 0.0719616 0.574986C0.0244599 0.688682 0 0.810677 0 0.933898C0 1.05712 0.0244599 1.17911 0.0719616 1.29281C0.119463 1.40651 0.189062 1.50964 0.276722 1.59624L6.06284 7.38861C6.07779 7.40263 6.0897 7.41957 6.09784 7.43838C6.10598 7.45719 6.11018 7.47746 6.11018 7.49796C6.11018 7.51845 6.10598 7.53873 6.09784 7.55754C6.0897 7.57634 6.07779 7.59328 6.06284 7.60731L0.276722 13.3934C0.189062 13.48 0.119463 13.5832 0.0719616 13.6969C0.0244599 13.8106 0 13.9325 0 14.0558C0 14.179 0.0244599 14.301 0.0719616 14.4147C0.119463 14.5284 0.189062 14.6315 0.276722 14.7181C0.45326 14.8921 0.691184 14.9897 0.939064 14.9897C1.18694 14.9897 1.42487 14.8921 1.60141 14.7181L7.38753 8.93199C7.4021 8.91687 7.41957 8.90485 7.43889 8.89663C7.45822 8.88842 7.479 8.88419 7.5 8.88419C7.521 8.88419 7.54178 8.88842 7.56111 8.89663C7.58043 8.90485 7.5979 8.91687 7.61247 8.93199L13.3986 14.7181C13.5751 14.8921 13.8131 14.9897 14.0609 14.9897C14.3088 14.9897 14.5467 14.8921 14.7233 14.7181C14.8109 14.6315 14.8805 14.5284 14.928 14.4147C14.9755 14.301 15 14.179 15 14.0558C15 13.9325 14.9755 13.8106 14.928 13.6969C14.8805 13.5832 14.8109 13.48 14.7233 13.3934L8.93716 7.60731Z" fill="#09152F"/>
</svg>
