<svg width="36" height="38" viewBox="0 0 36 38" fill="none" xmlns="http://www.w3.org/2000/svg">
<path fill-rule="evenodd" clip-rule="evenodd" d="M17.5738 0.214294C7.85594 0.214294 0 8.69343 0 19.1833C0 27.5684 5.03357 34.6662 12.0165 37.1783C12.8895 37.3672 13.2093 36.7701 13.2093 36.2679C13.2093 35.8282 13.1805 34.3208 13.1805 32.7503C8.29192 33.8811 7.27391 30.489 7.27391 30.489C6.48828 28.2906 5.32423 27.7256 5.32423 27.7256C3.72419 26.5636 5.44078 26.5636 5.44078 26.5636C7.21564 26.6892 8.14696 28.5107 8.14696 28.5107C9.71786 31.3998 12.2492 30.5835 13.2676 30.0809C13.4129 28.856 13.8787 28.0081 14.3734 27.5371C10.4743 27.0974 6.37209 25.4644 6.37209 18.1781C6.37209 16.1053 7.06995 14.4095 8.17573 13.0906C8.00127 12.6196 7.3901 10.6721 8.35056 8.06559C8.35056 8.06559 9.83441 7.563 13.1802 10.0127C14.6126 9.59748 16.0899 9.38625 17.5738 9.38448C19.0576 9.38448 20.5703 9.60455 21.9671 10.0127C25.3132 7.563 26.797 8.06559 26.797 8.06559C27.7575 10.6721 27.146 12.6196 26.9715 13.0906C28.1064 14.4095 28.7755 16.1053 28.7755 18.1781C28.7755 25.4644 24.6732 27.0658 20.7451 27.5371C21.3854 28.1338 21.9379 29.2642 21.9379 31.0544C21.9379 33.5982 21.9092 35.6397 21.9092 36.2676C21.9092 36.7701 22.2293 37.3672 23.102 37.1787C30.0849 34.6658 35.1185 27.5684 35.1185 19.1833C35.1472 8.69343 27.2625 0.214294 17.5738 0.214294Z" fill="black"/>
</svg>
